<svg width="192" height="122" viewBox="0 0 192 122" fill="none" xmlns="http://www.w3.org/2000/svg">
<path d="M1.27966 30.0772L0.75 30.24V30.7941V91.2059V91.76L1.27966 91.9228L95.7797 120.967L96 121.035L96.2203 120.967L190.72 91.9228L191.25 91.76V91.2059V30.7941V30.24L190.72 30.0772L96.2203 1.0331L96 0.965376L95.7797 1.0331L1.27966 30.0772Z" fill="#E6D6B5" stroke="#723E30" stroke-width="1.5"/>
<path d="M7.08668 33.1757L6 33.4872V34.6176V87.3824V88.5128L7.08668 88.8243L95.5867 114.192L96 114.31L96.4133 114.192L184.913 88.8243L186 88.5128V87.3824V34.6176V33.4872L184.913 33.1757L96.4133 7.80807L96 7.68959L95.5867 7.80807L7.08668 33.1757Z" fill="#723E30" stroke="#723E30" stroke-width="3"/>
</svg>
