<svg width="73" height="115" viewBox="0 0 73 115" fill="none" xmlns="http://www.w3.org/2000/svg">
<path d="M56.1077 54.1492L56.1075 54.1492C53.7531 54.9318 51.2884 55.3314 48.8074 55.3326C48.4052 55.3326 48.0057 55.314 47.6033 55.2902L49.3584 40.7841L50.7414 40.9617L50.9692 40.9909L51.0176 40.7663L54.7982 23.2111L57.258 23.5137L57.5062 23.5442L57.5367 23.2961L59.0157 11.2628C63.0749 13.2502 66.4681 16.3815 68.7754 20.2746C71.1415 24.2671 72.2569 28.8775 71.9775 33.5105C71.698 38.1436 70.0366 42.5864 67.2077 46.2654C64.3788 49.9443 60.5124 52.6904 56.1077 54.1492ZM64.1016 26.6647C62.9508 26.3473 61.7317 26.3784 60.5985 26.7541C59.846 27.0029 59.1499 27.3976 58.55 27.9157C57.9501 28.4339 57.4582 29.0653 57.1024 29.7738C56.7466 30.4823 56.5339 31.254 56.4766 32.0448C56.4192 32.8356 56.5183 33.6299 56.7681 34.3823C57.1433 35.5159 57.846 36.5127 58.7875 37.2467C59.7291 37.9808 60.8672 38.4191 62.0578 38.506C63.2484 38.593 64.4381 38.3249 65.4763 37.7355C66.5145 37.1461 67.3547 36.2619 67.8905 35.1948C68.4264 34.1277 68.6339 32.9256 68.4867 31.7406C68.3396 30.5556 67.8445 29.4408 67.0639 28.5373C66.2834 27.6337 65.2524 26.9821 64.1016 26.6647Z" fill="#723E30" stroke="#F8F2D8" stroke-width="0.5"/>
<path d="M28.0749 21.6883L28.0751 21.688C30.677 16.4847 35.1482 12.4638 40.5845 10.4247L39.2762 21.0493L39.2457 21.2975L39.4938 21.328L41.1737 21.5348L41.1648 39.5126L41.1647 39.7327L41.383 39.7607L42.9195 39.9578L41.2136 54.0569C38.1644 52.9984 35.3681 51.3152 33.0041 49.1136C30.5653 46.8424 28.6438 44.0728 27.3698 40.9928C26.0959 37.9129 25.4995 34.5948 25.6212 31.2638C25.7429 27.9328 26.5797 24.6671 28.0749 21.6883ZM33.5105 35.5207L33.5117 35.5203C34.1513 35.3108 34.8453 35.3408 35.4645 35.6048L35.7437 35.2026C35.4208 34.863 35.028 34.5977 34.5924 34.425C34.1569 34.2524 33.6889 34.1765 33.2211 34.2027C32.7533 34.2289 32.2968 34.3566 31.8833 34.5768C31.4697 34.797 31.1089 35.1045 30.826 35.478C30.543 35.8515 30.3446 36.2821 30.2445 36.74C30.1445 37.1978 30.1451 37.672 30.2464 38.1295C30.3477 38.5871 30.5472 39.0172 30.8311 39.3899C31.1151 39.7627 31.4766 40.0693 31.8908 40.2884L32.2022 39.9103C31.9187 39.5596 31.725 39.1451 31.6376 38.7026C31.5502 38.2601 31.5719 37.803 31.7007 37.3708C31.8295 36.9385 32.0616 36.5442 32.377 36.2219C32.6923 35.8995 33.0814 35.6589 33.5105 35.5207Z" fill="#723E30" stroke="#F8F2D8" stroke-width="0.5"/>
<path d="M51.9736 3.11644L51.7074 5.31661L49.0926 4.99475L49.3372 2.97247L49.3372 2.97244L49.5264 1.41019L49.5264 1.40988C49.547 1.23791 49.6013 1.07173 49.6861 0.920818C49.771 0.769886 49.8847 0.637137 50.0209 0.530213C50.1571 0.423276 50.3129 0.344255 50.4796 0.297652C50.6463 0.251045 50.8205 0.237766 50.9924 0.258567C51.1642 0.279364 51.3302 0.333868 51.481 0.418921C51.6318 0.503961 51.7643 0.617894 51.8711 0.754223C51.9778 0.890561 52.0566 1.0466 52.103 1.21342C52.1494 1.38022 52.1625 1.55454 52.1415 1.72647L52.1414 1.7268L51.9736 3.1164L51.9736 3.11644Z" fill="#723E30" stroke="#F8F2D8" stroke-width="0.5"/>
<path d="M47.4456 40.5383L45.6529 55.3549L45.4813 56.7727L44.9672 61.0208L44.9672 61.0209L44.8464 62.0209L44.8463 62.0219C44.1011 68.4195 41.3375 74.4131 36.9564 79.133L36.9562 79.1332C36.9235 79.1685 36.8909 79.2037 36.8584 79.2389C36.4625 79.6667 36.0728 80.0879 35.6561 80.485L35.6559 80.4848L35.6476 80.4935L35.6429 80.4984L34.3553 81.7237L34.3552 81.7237L33.5211 82.518L33.5211 82.518L22.4366 93.0687C22.4263 93.057 22.4155 93.0452 22.4042 93.0336L22.4041 93.0334L21.5558 92.1617L21.5537 92.1596C21.2263 91.831 20.8576 91.547 20.4574 91.3145L33.4828 78.9163L33.4829 78.9163L33.8306 78.5851L33.8307 78.585C33.9119 78.5077 33.9873 78.4275 34.0579 78.3517C34.0661 78.3429 34.0742 78.3342 34.0823 78.3255C34.1451 78.258 34.2041 78.1946 34.2656 78.1333L34.2657 78.1332C34.6906 77.7096 35.1215 77.2789 35.5231 76.8219C35.9568 76.3285 36.3596 75.814 36.7517 75.2983L47.4456 40.5383ZM47.4456 40.5383L44.8325 40.2029L47.4456 40.5383Z" fill="#723E30" stroke="#F8F2D8" stroke-width="0.5"/>
<path d="M5.34861 101.787L7.48912 99.7028L7.63341 99.859L8.29134 100.572L8.29139 100.572L8.64603 100.956L8.64605 100.956L8.77575 101.096L8.77577 101.096L9.26109 101.622L9.26113 101.622L9.40736 101.78L9.40738 101.78L11.3883 103.925L11.3883 103.925L11.713 104.277L11.713 104.277L11.8729 104.45L11.8729 104.45L12.358 104.975L12.3581 104.975L12.6068 105.244L12.6069 105.245L14.3587 107.141L9.00973 112.351L9.00972 112.351L8.31833 113.024C8.31825 113.024 8.31817 113.024 8.31809 113.025C7.79039 113.535 7.11098 113.86 6.38239 113.951L6.38237 113.95L6.3735 113.952C6.22752 113.975 6.08013 113.989 5.93225 113.994C5.12741 113.988 4.35081 113.696 3.74083 113.171L3.7347 113.165L3.72824 113.16C3.6431 113.096 3.56114 113.028 3.4827 112.955L2.79658 112.251L2.79657 112.251L1.195 110.605C0.574638 109.949 0.234323 109.077 0.246405 108.174C0.258487 107.272 0.622017 106.409 1.25972 105.77L3.47264 103.615L3.47266 103.615L5.34859 101.787L5.34861 101.787Z" fill="#723E30" stroke="#F8F2D8" stroke-width="0.5"/>
<path d="M16.0874 103.955L16.0874 103.955L15.3311 104.692L14.0846 103.342L14.0846 103.342L13.6785 102.902L13.6783 102.902L13.5994 102.817L13.5991 102.817L13.1148 102.292L13.1148 102.292L12.8424 101.997L12.8423 101.997L10.9875 99.9887L10.9875 99.9887L10.5024 99.4635L10.5023 99.4633L10.3679 99.3175L10.3677 99.3174L10.0182 98.9389L10.0181 98.9389L9.86776 98.776L10.7688 97.8984L10.7688 97.8984L15.3424 93.4441C15.9848 92.829 16.8377 92.4822 17.7269 92.4746C17.7684 92.4747 17.8128 92.4788 17.8662 92.4853C17.8802 92.487 17.8957 92.489 17.9121 92.4912C17.953 92.4965 17.9998 92.5026 18.0437 92.5067L18.0441 92.5067C18.8496 92.5812 19.6036 92.9358 20.1748 93.5089L21.0221 94.3795L21.0223 94.3798C21.0434 94.4013 21.0637 94.4269 21.09 94.4624C21.0945 94.4684 21.0993 94.4749 21.1045 94.4819C21.1265 94.5118 21.1541 94.5493 21.1833 94.5843L21.1839 94.5851C21.4831 94.9408 21.7049 95.3548 21.8353 95.801L21.8359 95.8027C22.0142 96.3971 22.0266 97.0291 21.8717 97.6301C21.7168 98.231 21.4006 98.7781 20.9573 99.2121C20.9572 99.2122 20.9571 99.2123 20.957 99.2124L17.8198 102.268L17.8198 102.268L16.0874 103.955Z" fill="#723E30" stroke="#F8F2D8" stroke-width="0.5"/>
<path d="M55.8267 21.3951L55.2059 21.3187L55.2283 21.214L54.9572 21.1806L51.5304 20.759L51.5303 20.759L50.8216 20.6716L50.8215 20.6716L50.1124 20.5844L47.0014 20.2017L46.292 20.1144L46.292 20.1144L45.5833 20.0272L41.4551 19.5192L41.4093 19.5135L42.6295 9.59408L42.6295 9.59407L42.8191 8.05348L42.8191 8.05337L42.825 8.0047C42.8745 7.61889 43.046 7.25901 43.3145 6.97764C43.5128 6.76979 43.7563 6.61281 44.0244 6.51777L44.0241 7.64763V7.64765L44.0235 9.10485V9.10486L44.0202 19.0435L44.5099 19.1148L46.9252 10.9843L46.9252 10.9843L47.5833 8.76912L47.5833 8.76911L48.0131 7.3227L48.0131 7.32264L48.1393 6.89832L48.1393 6.89829L48.1616 6.82334L48.6122 6.87883L48.6122 6.87883L51.7233 7.26177L51.7233 7.26178L52.4323 7.34899L53.1412 7.4362L53.1412 7.4362L55.6664 7.74713C56.1444 7.81167 56.5783 8.0607 56.8752 8.44107C57.1721 8.82144 57.3085 9.30295 57.2551 9.78258C57.2551 9.78303 57.255 9.78347 57.255 9.78392L57.1964 10.2604L57.1964 10.2605L55.8267 21.3951Z" fill="#723E30" stroke="#F8F2D8" stroke-width="0.5"/>
<path d="M43.1022 21.6653L44.5584 21.8449L44.6195 25.9281L44.6195 25.9282L44.6964 31.2267L44.6964 31.2268L44.7712 36.2481L45.2684 36.2816L45.4647 34.9782L45.4647 34.9782L47.3886 22.1929L49.8788 22.4992L49.8789 22.4992L50.5882 22.5861L50.589 22.5862L51.2964 22.6752L51.2973 22.6753L52.9014 22.8709L49.4584 38.8529L49.3447 38.8381L49.3443 38.838L48.6362 38.7469L47.9281 38.6559L47.928 38.6558L44.8183 38.2571L44.1083 38.1661L44.1082 38.1661L43.4027 38.0751L43.4022 38.075L43.0943 38.0347L43.1022 21.6653Z" fill="#723E30" stroke="#F8F2D8" stroke-width="0.5"/>
<path d="M62.4953 36.5932H62.4952C61.6321 36.5934 60.7909 36.3212 60.0914 35.8155C59.3918 35.3098 58.8695 34.5962 58.5988 33.7764L58.5987 33.7762C58.3258 32.9516 58.3212 32.0617 58.5856 31.2343C58.85 30.4069 59.3697 29.6846 60.0702 29.1713C60.7706 28.6579 61.6155 28.3798 62.4838 28.377C63.3521 28.3741 64.1989 28.6467 64.9027 29.1554C65.6064 29.6642 66.1309 30.383 66.4007 31.2086C66.6705 32.0343 66.6717 32.9242 66.4042 33.7506C66.1367 34.577 65.6143 35.2973 64.912 35.808C64.2097 36.3188 63.3636 36.5936 62.4953 36.5932Z" fill="#723E30" stroke="#F8F2D8" stroke-width="0.5"/>
</svg>
