<svg width="33" height="40" viewBox="0 0 33 40" fill="none" xmlns="http://www.w3.org/2000/svg">
<path d="M12.25 25.6006L13.8502 26.4002L7.85 35.2006L12.25 25.6006Z" fill="#723E30"/>
<path d="M23.773 24.3234C23.0756 25.7632 21.5874 26.6983 19.6727 27.0009C17.7596 27.3032 15.4597 26.9634 13.2376 25.8871C11.0155 24.8108 9.32313 23.2167 8.37438 21.5282C7.42478 19.8382 7.23592 18.0909 7.93333 16.651C8.63074 15.2112 10.1189 14.2762 12.0337 13.9736C13.9467 13.6713 16.2467 14.011 18.4687 15.0873C20.6908 16.1637 22.3832 17.7577 23.332 19.4462C24.2816 21.1362 24.4704 22.8836 23.773 24.3234Z" fill="#723E30" stroke="#4C281E" stroke-width="0.8"/>
<ellipse cx="13.3342" cy="19.267" rx="5.6" ry="4.8" transform="rotate(25.8444 13.3342 19.267)" fill="#E6D6B5"/>
<mask id="path-4-inside-1_828_6023" fill="white">
<path fill-rule="evenodd" clip-rule="evenodd" d="M23.3004 15.3004L15.3806 11.4642L12.0017 18.44C11.9941 18.4545 11.9867 18.4691 11.9796 18.4838C11.9724 18.4986 11.9655 18.5134 11.9589 18.5284L11.8184 18.8183L11.8578 18.8374C11.5829 20.1044 12.8111 21.7755 14.8061 22.7419C16.8011 23.7082 18.8738 23.6359 19.6975 22.6348L19.7383 22.6545L23.3004 15.3004Z"/>
</mask>
<path fill-rule="evenodd" clip-rule="evenodd" d="M23.3004 15.3004L15.3806 11.4642L12.0017 18.44C11.9941 18.4545 11.9867 18.4691 11.9796 18.4838C11.9724 18.4986 11.9655 18.5134 11.9589 18.5284L11.8184 18.8183L11.8578 18.8374C11.5829 20.1044 12.8111 21.7755 14.8061 22.7419C16.8011 23.7082 18.8738 23.6359 19.6975 22.6348L19.7383 22.6545L23.3004 15.3004Z" fill="#723E30"/>
<path d="M15.3806 11.4642L15.7293 10.7442L15.0093 10.3955L14.6606 11.1155L15.3806 11.4642ZM23.3004 15.3004L24.0204 15.6491L24.3691 14.9291L23.6492 14.5804L23.3004 15.3004ZM12.0017 18.44L12.7104 18.8111L12.7162 18.8L12.7217 18.7887L12.0017 18.44ZM11.9589 18.5284L12.6789 18.8771L12.6843 18.8658L12.6894 18.8544L11.9589 18.5284ZM11.8184 18.8183L11.0984 18.4696L10.7497 19.1896L11.4697 19.5383L11.8184 18.8183ZM11.8578 18.8374L12.6396 19.007L12.7731 18.3918L12.2065 18.1174L11.8578 18.8374ZM19.6975 22.6348L20.0462 21.9148L19.4797 21.6404L19.0797 22.1265L19.6975 22.6348ZM19.7383 22.6545L19.3895 23.3745L20.1095 23.7232L20.4582 23.0032L19.7383 22.6545ZM15.0318 12.1842L22.9517 16.0204L23.6492 14.5804L15.7293 10.7442L15.0318 12.1842ZM12.7217 18.7887L16.1006 11.8129L14.6606 11.1155L11.2817 18.0912L12.7217 18.7887ZM12.6996 18.8326C12.7031 18.8253 12.7067 18.8182 12.7104 18.8111L11.293 18.0689C11.2815 18.0907 11.2704 18.1128 11.2596 18.1351L12.6996 18.8326ZM12.6894 18.8544C12.6927 18.8471 12.6961 18.8398 12.6996 18.8326L11.2596 18.1351C11.2488 18.1574 11.2384 18.1798 11.2283 18.2024L12.6894 18.8544ZM12.5384 19.1671L12.6789 18.8771L11.2389 18.1796L11.0984 18.4696L12.5384 19.1671ZM12.2065 18.1174L12.1672 18.0984L11.4697 19.5383L11.5091 19.5574L12.2065 18.1174ZM15.1548 22.0219C14.2561 21.5866 13.5564 21.0039 13.121 20.4228C12.6738 19.8257 12.5703 19.3267 12.6396 19.007L11.076 18.6678C10.8705 19.6151 11.2436 20.5852 11.8404 21.382C12.4492 22.1947 13.3611 22.9309 14.4573 23.4619L15.1548 22.0219ZM19.0797 22.1265C18.8719 22.379 18.4162 22.6072 17.6704 22.6264C16.9445 22.6451 16.0536 22.4572 15.1548 22.0219L14.4573 23.4619C15.5536 23.9929 16.6965 24.252 17.7116 24.2258C18.7069 24.2002 19.6994 23.8916 20.3153 23.1431L19.0797 22.1265ZM20.087 21.9345L20.0462 21.9148L19.3487 23.3547L19.3895 23.3745L20.087 21.9345ZM22.5804 14.9516L19.0183 22.3058L20.4582 23.0032L24.0204 15.6491L22.5804 14.9516Z" fill="#4C281E" mask="url(#path-4-inside-1_828_6023)"/>
<rect x="15.7539" y="12.4385" width="1.6" height="5.6" transform="rotate(25.8444 15.7539 12.4385)" fill="#E6D6B5"/>
<path d="M27.7393 12.5694C26.4272 15.2782 22.4809 16.2447 18.8182 14.4706C15.1556 12.6965 13.4675 9.00083 14.7796 6.29203C16.0917 3.58324 20.0379 2.61671 23.7006 4.39082C27.3633 6.16494 29.0514 9.86061 27.7393 12.5694Z" fill="#723E30" stroke="#4C281E" stroke-width="0.8"/>
<ellipse cx="19.0871" cy="7.38758" rx="3.2" ry="2.8" transform="rotate(25.8444 19.0871 7.38758)" fill="#E6D6B5"/>
</svg>
